<svg xmlns:svgjs="http://svgjs.com/svgjs" id="SvgjsSvg1022" width="100%" height="100%"
     xmlns="http://www.w3.org/2000/svg" version="1.1" xlink="http://www.w3.org/1999/xlink"
     viewBox="4.499996185302734 16.747982025146484 82.5 56.887020111083984">
    <defs id="SvgjsDefs1023"></defs>
    <g id="SvgjsG1024" fill="#c11f30">
        <path d="M57.25 58.188s-2.027-2.684-4.951-4.154S46 52.688 46 52.688l23.479-30.236L57.25 58.188z"></path>
        <path d="M71.014 25.424l-2.074 6.06C76.323 37.95 81 47.436 81 57.998c0 8.927-3.089 9.637-7.127 9.637-2.833 0-6.325-.604-10.368-1.303a240.68 240.68 0 0 0-6.046-.99c-.586-5.946-5.6-10.592-11.7-10.592s-11.112 4.645-11.7 10.59c-2.106.31-4.133.658-6.064.992-4.043.698-7.535 1.302-10.368 1.303-3.325 0-4.53-.851-5.208-1.592-1.273-1.393-1.919-4.099-1.919-8.045 0-19.437 15.813-35.25 35.25-35.25a35.026 35.026 0 0 1 17.001 4.383l3.713-4.782a40.978 40.978 0 0 0-20.714-5.601c-22.745 0-41.25 18.505-41.25 41.25 0 5.569 1.142 9.525 3.492 12.095 2.18 2.383 5.332 3.542 9.635 3.542 3.348-.001 7.254-.676 11.39-1.391 5.056-.874 10.787-1.864 16.733-1.864s11.677.99 16.733 1.864c4.136.715 8.042 1.391 11.39 1.391C82.829 73.635 87 68.666 87 57.998c0-13.232-6.27-25.02-15.986-32.574zm-25.18 43.243a3.834 3.834 0 1 1 0-7.667 3.834 3.834 0 0 1 0 7.667z"></path>
    </g>
</svg>