<svg xmlns:svgjs="http://svgjs.com/svgjs" id="SvgjsSvg1014" width="100%" height="100%"
     xmlns="http://www.w3.org/2000/svg" version="1.1" xlink="http://www.w3.org/1999/xlink"
     viewBox="1.8799999952316284 -21.280000686645508 292.41998291015625 27.84000015258789">
    <defs id="SvgjsDefs1015"></defs>
    <g id="SvgjsG1016" fill="#c11f30">
        <path d="M17.52 -20.59L16.31 -5.09L5.75 -20.59L3.47 -20.59L1.88 0L4.65 0L5.9 -15.53L16.45 0L18.74 0L20.35 -20.59Z M25.85 -7.23L36.26 -7.23C36.31 -7.69 36.34 -8.13 36.34 -8.56C36.34 -10.6 35.79 -12.17 34.69 -13.27C33.6 -14.37 32.09 -14.92 30.18 -14.92C28.78 -14.92 27.52 -14.58 26.43 -13.91C25.33 -13.23 24.47 -12.28 23.87 -11.06C23.26 -9.83 22.96 -8.43 22.96 -6.85C22.96 -5.45 23.25 -4.21 23.82 -3.14C24.4 -2.07 25.23 -1.24 26.3 -0.66C27.37 -0.09 28.62 0.2 30.07 0.2C31.13 0.2 32.16 0.04 33.18 -0.29C34.19 -0.62 35 -1.07 35.62 -1.65L34.87 -3.7C33.5 -2.62 31.95 -2.08 30.21 -2.08C28.79 -2.08 27.7 -2.5 26.96 -3.32C26.22 -4.15 25.85 -5.33 25.85 -6.85ZM27.51 -11.81C28.23 -12.46 29.17 -12.78 30.33 -12.78C31.43 -12.78 32.29 -12.45 32.92 -11.78C33.54 -11.12 33.85 -10.18 33.83 -8.96L26.05 -8.96C26.3 -10.22 26.79 -11.16 27.51 -11.81Z M41.63 -7.23L52.04 -7.23C52.1 -7.69 52.13 -8.13 52.13 -8.56C52.13 -10.6 51.58 -12.17 50.48 -13.27C49.38 -14.37 47.88 -14.92 45.97 -14.92C44.56 -14.92 43.31 -14.58 42.21 -13.91C41.11 -13.23 40.26 -12.28 39.65 -11.06C39.05 -9.83 38.74 -8.43 38.74 -6.85C38.74 -5.45 39.03 -4.21 39.61 -3.14C40.19 -2.07 41.01 -1.24 42.08 -0.66C43.15 -0.09 44.41 0.2 45.85 0.2C46.91 0.2 47.95 0.04 48.96 -0.29C49.97 -0.62 50.79 -1.07 51.41 -1.65L50.65 -3.7C49.29 -2.62 47.73 -2.08 46 -2.08C44.57 -2.08 43.49 -2.5 42.75 -3.32C42 -4.15 41.63 -5.33 41.63 -6.85ZM43.3 -11.81C44.02 -12.46 44.96 -12.78 46.11 -12.78C47.21 -12.78 48.08 -12.45 48.7 -11.78C49.33 -11.12 49.63 -10.18 49.61 -8.96L41.84 -8.96C42.09 -10.22 42.57 -11.16 43.3 -11.81Z M69.82 -21.28L66.9 -21.28L66.21 -12.23C65.78 -13.1 65.16 -13.76 64.33 -14.22C63.5 -14.69 62.53 -14.92 61.41 -14.92C60.06 -14.92 58.87 -14.58 57.82 -13.91C56.78 -13.23 55.97 -12.28 55.4 -11.04C54.82 -9.81 54.53 -8.39 54.53 -6.79C54.53 -5.39 54.79 -4.15 55.31 -3.09C55.83 -2.03 56.56 -1.22 57.49 -0.65C58.43 -0.08 59.51 0.2 60.74 0.2C61.73 0.2 62.63 0 63.46 -0.42C64.29 -0.83 64.95 -1.42 65.43 -2.17L65.25 0L68.12 0ZM64.72 -3.63C63.96 -2.6 62.91 -2.08 61.58 -2.08C60.27 -2.08 59.26 -2.51 58.55 -3.35C57.83 -4.2 57.48 -5.39 57.48 -6.91C57.48 -8.68 57.86 -10.08 58.63 -11.09C59.4 -12.1 60.46 -12.61 61.81 -12.61C63.12 -12.61 64.13 -12.2 64.82 -11.38C65.51 -10.56 65.86 -9.37 65.86 -7.81C65.86 -6.05 65.48 -4.66 64.72 -3.63Z M94.92 -18.13L95.12 -20.59L82.05 -20.59L80.46 0L83.41 0L84.13 -9.22L93.65 -9.22L93.82 -11.68L84.34 -11.68L84.86 -18.13Z M99.28 -0.66C100.34 -0.09 101.58 0.2 102.98 0.2C104.43 0.2 105.7 -0.13 106.79 -0.78C107.88 -1.44 108.72 -2.37 109.33 -3.59C109.94 -4.8 110.24 -6.22 110.24 -7.84C110.24 -9.26 109.96 -10.5 109.39 -11.56C108.82 -12.62 108.01 -13.45 106.96 -14.04C105.91 -14.62 104.68 -14.92 103.27 -14.92C101.83 -14.92 100.56 -14.59 99.46 -13.94C98.36 -13.28 97.51 -12.35 96.9 -11.13C96.29 -9.92 95.99 -8.5 95.99 -6.88C95.99 -5.45 96.27 -4.21 96.84 -3.14C97.41 -2.07 98.22 -1.24 99.28 -0.66ZM106.18 -3.67C105.44 -2.61 104.38 -2.08 103.01 -2.08C101.66 -2.08 100.65 -2.48 99.96 -3.28C99.28 -4.08 98.94 -5.25 98.94 -6.79C98.94 -8.57 99.31 -9.98 100.06 -11.03C100.82 -12.08 101.89 -12.61 103.27 -12.61C104.57 -12.61 105.56 -12.2 106.25 -11.39C106.95 -10.58 107.29 -9.43 107.29 -7.92C107.29 -6.15 106.92 -4.73 106.18 -3.67Z M122.88 -14.72C122.43 -14.85 121.97 -14.92 121.49 -14.92C120.49 -14.92 119.57 -14.69 118.73 -14.22C117.89 -13.76 117.24 -13.12 116.78 -12.29L116.72 -14.57L114 -14.57C114.02 -14.32 114.03 -13.94 114.03 -13.42C114.03 -12.76 113.99 -11.78 113.91 -10.47L113.08 0L116 0L116.63 -8.12C116.73 -9.36 117.14 -10.37 117.86 -11.17C118.58 -11.97 119.61 -12.37 120.94 -12.37C121.56 -12.37 122.12 -12.28 122.62 -12.09Z M131.06 -2.31C133.16 -0.62 135.82 0.23 139.04 0.23C141.51 0.23 143.45 -0.29 144.86 -1.34C146.28 -2.39 146.99 -3.84 146.99 -5.67C146.99 -6.82 146.69 -7.76 146.08 -8.49C145.47 -9.21 144.73 -9.76 143.87 -10.13C143 -10.51 141.86 -10.9 140.46 -11.3C139.28 -11.65 138.36 -11.96 137.71 -12.22C137.05 -12.48 136.5 -12.84 136.06 -13.3C135.62 -13.76 135.4 -14.34 135.4 -15.03C135.4 -16.08 135.82 -16.89 136.67 -17.49C137.52 -18.09 138.71 -18.39 140.25 -18.39C141.35 -18.39 142.42 -18.2 143.46 -17.81C144.5 -17.42 145.47 -16.85 146.35 -16.08L147.6 -18.27C146.73 -19.08 145.65 -19.71 144.37 -20.15C143.09 -20.6 141.74 -20.82 140.31 -20.82C138.71 -20.82 137.31 -20.57 136.12 -20.08C134.92 -19.59 134 -18.89 133.36 -17.98C132.71 -17.08 132.39 -16.03 132.39 -14.83C132.39 -13.58 132.71 -12.57 133.34 -11.81C133.98 -11.05 134.74 -10.47 135.64 -10.08C136.54 -9.68 137.71 -9.27 139.15 -8.85C140.29 -8.5 141.16 -8.21 141.77 -7.97C142.38 -7.72 142.89 -7.4 143.32 -6.98C143.74 -6.57 143.95 -6.04 143.95 -5.41C143.95 -4.39 143.54 -3.59 142.71 -3.04C141.88 -2.48 140.69 -2.2 139.13 -2.2C137.8 -2.2 136.59 -2.38 135.5 -2.75C134.41 -3.11 133.34 -3.7 132.3 -4.51Z M161.78 -14.07C160.84 -14.63 159.76 -14.92 158.53 -14.92C157.48 -14.92 156.53 -14.68 155.65 -14.2C154.77 -13.71 154.11 -13.05 153.67 -12.2L153.61 -14.57L150.89 -14.57C150.91 -14.26 150.92 -13.81 150.92 -13.21C150.92 -12.17 150.88 -11.26 150.81 -10.47L149.48 6.25L152.37 6.25L153.06 -2.46C153.5 -1.61 154.14 -0.95 154.97 -0.49C155.8 -0.03 156.76 0.2 157.86 0.2C159.21 0.2 160.4 -0.13 161.45 -0.81C162.49 -1.48 163.3 -2.43 163.87 -3.66C164.45 -4.88 164.74 -6.29 164.74 -7.89C164.74 -9.32 164.48 -10.56 163.96 -11.62C163.44 -12.68 162.71 -13.5 161.78 -14.07ZM160.65 -3.61C159.89 -2.59 158.83 -2.08 157.48 -2.08C156.17 -2.08 155.17 -2.49 154.46 -3.31C153.76 -4.13 153.41 -5.32 153.41 -6.88C153.41 -8.65 153.79 -10.05 154.55 -11.07C155.31 -12.09 156.37 -12.61 157.72 -12.61C159.01 -12.61 160.01 -12.19 160.72 -11.35C161.44 -10.51 161.79 -9.33 161.79 -7.81C161.79 -6.03 161.41 -4.64 160.65 -3.61Z M170.18 -7.23L180.59 -7.23C180.64 -7.69 180.67 -8.13 180.67 -8.56C180.67 -10.6 180.12 -12.17 179.02 -13.27C177.93 -14.37 176.42 -14.92 174.51 -14.92C173.11 -14.92 171.85 -14.58 170.75 -13.91C169.66 -13.23 168.8 -12.28 168.2 -11.06C167.59 -9.83 167.29 -8.43 167.29 -6.85C167.29 -5.45 167.57 -4.21 168.15 -3.14C168.73 -2.07 169.56 -1.24 170.62 -0.66C171.69 -0.09 172.95 0.2 174.4 0.2C175.46 0.2 176.49 0.04 177.51 -0.29C178.52 -0.62 179.33 -1.07 179.95 -1.65L179.2 -3.7C177.83 -2.62 176.28 -2.08 174.54 -2.08C173.12 -2.08 172.03 -2.5 171.29 -3.32C170.55 -4.15 170.18 -5.33 170.18 -6.85ZM171.84 -11.81C172.56 -12.46 173.5 -12.78 174.66 -12.78C175.76 -12.78 176.62 -12.45 177.25 -11.78C177.87 -11.12 178.18 -10.18 178.16 -8.96L170.38 -8.96C170.63 -10.22 171.12 -11.16 171.84 -11.81Z M185.96 -7.23L196.37 -7.23C196.43 -7.69 196.46 -8.13 196.46 -8.56C196.46 -10.6 195.91 -12.17 194.81 -13.27C193.71 -14.37 192.21 -14.92 190.3 -14.92C188.89 -14.92 187.64 -14.58 186.54 -13.91C185.44 -13.23 184.59 -12.28 183.98 -11.06C183.38 -9.83 183.07 -8.43 183.07 -6.85C183.07 -5.45 183.36 -4.21 183.94 -3.14C184.52 -2.07 185.34 -1.24 186.41 -0.66C187.48 -0.09 188.74 0.2 190.18 0.2C191.24 0.2 192.28 0.04 193.29 -0.29C194.3 -0.62 195.12 -1.07 195.74 -1.65L194.98 -3.7C193.61 -2.62 192.06 -2.08 190.33 -2.08C188.9 -2.08 187.82 -2.5 187.08 -3.32C186.33 -4.15 185.96 -5.33 185.96 -6.85ZM187.63 -11.81C188.35 -12.46 189.29 -12.78 190.44 -12.78C191.54 -12.78 192.41 -12.45 193.03 -11.78C193.66 -11.12 193.96 -10.18 193.94 -8.96L186.17 -8.96C186.42 -10.22 186.9 -11.16 187.63 -11.81Z M214.15 -21.28L211.23 -21.28L210.54 -12.23C210.11 -13.1 209.49 -13.76 208.66 -14.22C207.83 -14.69 206.86 -14.92 205.74 -14.92C204.39 -14.92 203.19 -14.58 202.15 -13.91C201.11 -13.23 200.3 -12.28 199.72 -11.04C199.15 -9.81 198.86 -8.39 198.86 -6.79C198.86 -5.39 199.12 -4.15 199.64 -3.09C200.16 -2.03 200.89 -1.22 201.82 -0.65C202.76 -0.08 203.84 0.2 205.07 0.2C206.06 0.2 206.96 0 207.79 -0.42C208.62 -0.83 209.28 -1.42 209.76 -2.17L209.58 0L212.45 0ZM209.05 -3.63C208.29 -2.6 207.24 -2.08 205.91 -2.08C204.6 -2.08 203.59 -2.51 202.88 -3.35C202.16 -4.2 201.81 -5.39 201.81 -6.91C201.81 -8.68 202.19 -10.08 202.96 -11.09C203.73 -12.1 204.79 -12.61 206.14 -12.61C207.45 -12.61 208.46 -12.2 209.15 -11.38C209.84 -10.56 210.19 -9.37 210.19 -7.81C210.19 -6.05 209.81 -4.66 209.05 -3.63Z M231.15 -14.57L228.2 -14.57L222.65 -3.27L218.89 -14.57L215.92 -14.57L220.95 -0.32L220.28 0.9C219.76 1.88 219.13 2.62 218.4 3.11C217.67 3.6 216.62 4 215.25 4.31L215.71 6.56C217.37 6.29 218.79 5.76 219.96 4.97C221.14 4.18 222.17 2.92 223.06 1.19Z M239.36 -2.31C241.46 -0.62 244.12 0.23 247.34 0.23C249.81 0.23 251.75 -0.29 253.17 -1.34C254.59 -2.39 255.29 -3.84 255.29 -5.67C255.29 -6.82 254.99 -7.76 254.38 -8.49C253.78 -9.21 253.04 -9.76 252.17 -10.13C251.3 -10.51 250.17 -10.9 248.76 -11.3C247.58 -11.65 246.67 -11.96 246.01 -12.22C245.36 -12.48 244.81 -12.84 244.37 -13.3C243.92 -13.76 243.7 -14.34 243.7 -15.03C243.7 -16.08 244.12 -16.89 244.97 -17.49C245.82 -18.09 247.02 -18.39 248.56 -18.39C249.66 -18.39 250.73 -18.2 251.77 -17.81C252.81 -17.42 253.77 -16.85 254.66 -16.08L255.9 -18.27C255.03 -19.08 253.96 -19.71 252.68 -20.15C251.4 -20.6 250.04 -20.82 248.62 -20.82C247.02 -20.82 245.62 -20.57 244.42 -20.08C243.23 -19.59 242.31 -18.89 241.66 -17.98C241.02 -17.08 240.69 -16.03 240.69 -14.83C240.69 -13.58 241.01 -12.57 241.65 -11.81C242.28 -11.05 243.05 -10.47 243.95 -10.08C244.84 -9.68 246.01 -9.27 247.46 -8.85C248.6 -8.5 249.47 -8.21 250.08 -7.97C250.68 -7.72 251.2 -7.4 251.62 -6.98C252.05 -6.57 252.26 -6.04 252.26 -5.41C252.26 -4.39 251.84 -3.59 251.01 -3.04C250.19 -2.48 248.99 -2.2 247.43 -2.2C246.1 -2.2 244.89 -2.38 243.8 -2.75C242.71 -3.11 241.65 -3.7 240.61 -4.51Z M274.72 3.79C273.24 2.48 272.14 1.12 271.43 -0.29C273.41 -1 274.97 -2.3 276.1 -4.19C277.22 -6.08 277.79 -8.38 277.79 -11.1C277.79 -13.11 277.41 -14.84 276.65 -16.31C275.88 -17.77 274.8 -18.89 273.39 -19.67C271.99 -20.46 270.32 -20.85 268.39 -20.85C266.44 -20.85 264.73 -20.38 263.26 -19.44C261.78 -18.51 260.65 -17.18 259.85 -15.47C259.05 -13.75 258.65 -11.76 258.65 -9.48C258.65 -7.48 259.02 -5.74 259.78 -4.28C260.53 -2.81 261.61 -1.69 263.01 -0.91C264.42 -0.13 266.09 0.26 268.02 0.26L268.36 0.26C268.86 1.28 269.48 2.26 270.21 3.19C270.95 4.13 271.73 4.91 272.55 5.52ZM263.32 -4.09C262.23 -5.33 261.68 -7.12 261.68 -9.45C261.68 -12.23 262.28 -14.41 263.48 -15.99C264.67 -17.57 266.32 -18.36 268.42 -18.36C270.44 -18.36 272 -17.73 273.09 -16.48C274.18 -15.23 274.72 -13.43 274.72 -11.1C274.72 -9.27 274.45 -7.69 273.91 -6.36C273.37 -5.03 272.6 -4.01 271.59 -3.3C270.57 -2.58 269.38 -2.23 268.02 -2.23C265.97 -2.23 264.41 -2.85 263.32 -4.09Z M281.11 0L294.09 0L294.3 -2.49L284.29 -2.49L285.71 -20.59L282.7 -20.59Z"></path>
    </g>
</svg>