<svg xmlns:svgjs="http://svgjs.com/svgjs" id="SvgjsSvg1001" width="100%" height="100%"
     xmlns="http://www.w3.org/2000/svg" version="1.1" xlink="http://www.w3.org/1999/xlink"
     viewBox="3.9000000953674316 -62.619998931884766 287.45001220703125 79.19000244140625">
    <defs id="SvgjsDefs1002"></defs>
    <g id="SvgjsG1008" fill="#c11f30">
        <path d="M48.75 -61.76L45.88 -27.24L20.64 -61.76L8.76 -61.76L3.9 0L19 0L21.77 -34.43L46.92 0L59.07 0L63.92 -61.76Z M117.27 -49.01L118.31 -61.76L75.2 -61.76L70.34 0L86.39 0L88.38 -25.07L113.62 -25.07L114.58 -37.73L89.43 -37.73L90.29 -49.01Z M129.67 -1C134.18 0.19 138.81 0.78 143.55 0.78C152.11 0.78 158.73 -0.91 163.41 -4.29C168.1 -7.68 170.44 -12.46 170.44 -18.65C170.44 -22.41 169.44 -25.47 167.44 -27.84C165.45 -30.21 163.08 -32.01 160.33 -33.22C157.59 -34.43 154.07 -35.65 149.79 -36.86C145.69 -38.02 142.7 -39.09 140.82 -40.07C138.94 -41.06 138 -42.47 138 -44.32C138 -46.11 138.92 -47.52 140.77 -48.53C142.62 -49.54 145.14 -50.05 148.32 -50.05C151.15 -50.05 154.1 -49.54 157.17 -48.53C160.23 -47.52 163.04 -46.09 165.58 -44.24L171.39 -55.77C168.96 -57.85 165.7 -59.5 161.59 -60.72C157.48 -61.93 153.18 -62.54 148.67 -62.54C143.29 -62.54 138.59 -61.73 134.57 -60.11C130.55 -58.49 127.44 -56.19 125.25 -53.21C123.05 -50.23 121.95 -46.78 121.95 -42.85C121.95 -38.97 122.95 -35.84 124.94 -33.44C126.94 -31.04 129.32 -29.22 132.1 -27.97C134.88 -26.73 138.37 -25.5 142.59 -24.29C146.64 -23.07 149.61 -21.96 151.49 -20.95C153.36 -19.93 154.3 -18.53 154.3 -16.74C154.3 -13.39 150.92 -11.71 144.16 -11.71C136.87 -11.71 130.13 -13.65 123.95 -17.52L117.96 -5.98C121.26 -3.85 125.16 -2.18 129.67 -1Z M228.85 3.08C227.21 1.32 225.8 -0.58 224.65 -2.6C229.79 -5.2 233.78 -9.12 236.62 -14.35C239.45 -19.59 240.87 -25.73 240.87 -32.79C240.87 -38.86 239.62 -44.15 237.14 -48.66C234.65 -53.17 231.09 -56.62 226.47 -59.02C221.84 -61.42 216.44 -62.62 210.25 -62.62C204 -62.62 198.51 -61.24 193.77 -58.46C189.03 -55.68 185.37 -51.75 182.8 -46.66C180.22 -41.58 178.94 -35.68 178.94 -28.97C178.94 -22.9 180.18 -17.62 182.67 -13.14C185.15 -8.66 188.68 -5.2 193.25 -2.78C197.82 -0.35 203.17 0.87 209.29 0.87C212.3 7 216.93 12.23 223.17 16.57L234.71 8.67C232.45 6.71 230.5 4.84 228.85 3.08ZM198.84 -16.13C196.39 -19.14 195.16 -23.42 195.16 -28.97C195.16 -35.56 196.52 -40.74 199.23 -44.5C201.95 -48.25 205.71 -50.13 210.51 -50.13C214.96 -50.13 218.43 -48.62 220.92 -45.58C223.4 -42.54 224.65 -38.28 224.65 -32.79C224.65 -26.19 223.27 -21.02 220.53 -17.26C217.78 -13.5 214.07 -11.62 209.38 -11.62C204.81 -11.62 201.3 -13.13 198.84 -16.13Z M247.98 0L290.39 0L291.35 -13.18L265.24 -13.18L269.23 -61.76L252.84 -61.76Z"></path>
    </g>
</svg>